<svg xmlns="http://www.w3.org/2000/svg" viewBox="0 0 320 269.01">
  <defs>
    <style>
      .cls-1 {
        fill: #d6c396;
      }

      .cls-2 {
        fill: #e7e8e4;
      }
    </style>
  </defs>
  <g id="Layer_5" data-name="Layer 5">
    <path class="cls-1" d="M155.39,112.38c-.07,13.39-.18,26.78-.21,40.16,0,6.54.33,13.08.76,19.59.45,6.85.21,13.76,1.08,20.57.27,2.09,3.76,3.15,4.13.56.89-6.36.81-12.77,1.24-19.17.46-6.85,1-13.69,1.13-20.57.23-13.71.17-27.43.26-41.14C163.81,107,155.42,107,155.39,112.38Z"/>
    <path class="cls-1" d="M275.48,141.45c-7.86,9.4-15.65,19-22.85,28.87-7.71,10.6-16.17,20.48-24.39,30.68-1.63,2,1.14,4.92,2.9,2.91,8.32-9.5,16.19-19.35,25-28.36s17.11-18.55,25.23-28.17C284.87,143.28,278.94,137.32,275.48,141.45Z"/>
    <path class="cls-1" d="M299.09,168.67c-16.63,10.56-32.52,22.05-48.61,33.41-2.11,1.5-.26,4.85,2.07,3.53,17.07-9.71,34.18-19.19,50.75-29.73C307.81,173,303.64,165.78,299.09,168.67Z"/>
    <path class="cls-1" d="M42.51,141.45c7.86,9.4,15.64,19,22.85,28.87,7.7,10.6,16.17,20.48,24.39,30.68,1.62,2-1.14,4.92-2.91,2.91-8.31-9.5-16.18-19.35-25-28.36S44.69,157,36.58,147.38C33.12,143.28,39.05,137.32,42.51,141.45Z"/>
    <path class="cls-1" d="M18.9,168.67c16.63,10.56,32.52,22.05,48.61,33.41,2.11,1.5.26,4.85-2.07,3.53-17.07-9.71-34.18-19.19-50.75-29.73C10.17,173,14.35,165.78,18.9,168.67Z"/>
    <path class="cls-2" d="M161.77,53a4.55,4.55,0,0,0-.63-.3c-3.87-1.46-7.44,2.52-7.4,6.18a5.18,5.18,0,0,0,3.51,4.87,5.36,5.36,0,0,0,5.43-1.4,6.85,6.85,0,0,0,1.92-3.55h0A4.64,4.64,0,0,0,161.77,53Z"/>
  </g>
  <g id="Layer_3" data-name="Layer 3">
    <g>
      <g>
        <path class="cls-2" d="M82.3,138.44l5,18.77c1,17.62-2.56,29,10.93,37.6,6.17,4,23.58,7,27.06-1.42,4.33-10,11.3-26.39,16.15-36.34,4-8.5,3.27-19.13,2.68-28.27v0c-.7-4.52-2.31-16.44-1.88-20.86v0c1.63-9.15,8.54-37.22,1.38-43.7a.1.1,0,0,0-.05,0c-10.29-4.91-12.89,8.76-17.52,18.39-1.84,3.82-1.78,5.52-2.73,9.66-.8,3.5-.47,7.25-.4,10.57a21.12,21.12,0,0,1-2.53,10.78,11,11,0,0,1-.83,1.32v0c-.59.63-2.49,2.08-3.3,1.35-.44-.39.1-2.37.83-4.45a35.07,35.07,0,0,0,1.86-13,31.94,31.94,0,0,1,.41-6c.29-2,.12-4,.59-6,1.38-5.74,2.59-11.79,7.84-21.3l0,0c5.19-6.36,12.69-18.93,19.81-30.55,2.4-3.91,5.32-7.47,7-11.74,1.41-3.63,2.8-7.18,2.89-7.43,0,0,0,0,0,0,3.4-25-5.89-15.73-17.84-2.11h0a442,442,0,0,0-40.73,43,25.43,25.43,0,0,0-3.33,5.38C86.36,82,76.45,89.7,76.17,114.59a7.84,7.84,0,0,0,.28,2.15C77.41,120.32,80.62,132.21,82.3,138.44Z"/>
        <path class="cls-2" d="M140.5,207.86c-7.73-1.73-18.92-.83-25.47,0a52.14,52.14,0,0,0-9.4,2l-11.92,3.72a243.89,243.89,0,0,0-25.64,9.6l-26.41,11.6-21.31,6.89c-3.44,1.41-9.55,6.54-12.1,9.26l-1.08,1.15a1.36,1.36,0,0,0,1.17,2.28l53-7.1c2.25-.3,4.52-.53,6.78-.67l37.83-4.1c8.92-.56,14.55-1.48,14.55-1.48,4.93-1,18.4-1.39,20.39.83,1,1.08-1.6,4.44-3.57,6.7a1.33,1.33,0,0,0,1,2.19H159a1.35,1.35,0,0,0,1.35-1.36l.12-31.31A2.44,2.44,0,0,1,161,217S149.37,209.85,140.5,207.86Z"/>
      </g>
      <g>
        <path class="cls-2" d="M161.63,16.38c.48,1.25,1.54,4,2.62,6.74,1.66,4.27,4.58,7.83,7,11.74,7,11.37,14.3,23.65,19.47,30.13a5.85,5.85,0,0,1,.63.93c5,9.23,6.21,15.17,7.57,20.81.47,2,.3,4,.59,6a30.24,30.24,0,0,1,.38,6.58,32.33,32.33,0,0,0,1.88,12.44c.73,2.09,1.28,4.1.84,4.49s-1.09.18-1.75-.17a5.91,5.91,0,0,1-2.25-2.27l-.14-.25a21.12,21.12,0,0,1-2.53-10.78c.07-3.32.4-7.07-.4-10.57-1-4.14-.89-5.84-2.73-9.66-4.21-8.76-6.74-20.85-14.9-19.28a6.07,6.07,0,0,0-4.43,3.5c-4,9.26,1.54,32.33,3.09,40.83,0,.21.06.42.08.63.32,4.56-1.17,15.71-1.87,20.3a4.78,4.78,0,0,0-.06.53c-.6,9.08-1.29,19.59,2.69,28,4.85,9.95,11.82,26.32,16.15,36.34,3.48,8.43,20.89,5.45,27.06,1.42,13.49-8.57,10-20,10.93-37.6l5-18.77c1.72-6.37,5-18.64,5.91-21.93a6,6,0,0,0,.22-1.69c-.22-25.14-10.21-32.82-19.49-53A24.23,24.23,0,0,0,220,56.69c-11.48-14.24-27.6-30.92-40.62-42.94a6.25,6.25,0,0,1-.44-.45C167.25,0,158.16-9,161.25,14.91A5.68,5.68,0,0,0,161.63,16.38Z"/>
        <path class="cls-2" d="M311.67,252.06l-1.08-1.15c-2.55-2.72-8.66-7.85-12.1-9.26l-21.31-6.89-26.41-11.6a243.89,243.89,0,0,0-25.64-9.6l-11.92-3.72a52.14,52.14,0,0,0-9.4-2c-6.55-.79-17.74-1.69-25.47,0-8.87,2-20.48,9.12-20.48,9.12a2.44,2.44,0,0,1,.5,1.06l.11,31.31a1.37,1.37,0,0,0,1.36,1.36h20.73a1.33,1.33,0,0,0,1-2.19c-2-2.26-4.54-5.62-3.57-6.7,2-2.22,15.46-1.8,20.39-.83,0,0,5.63.92,14.55,1.48l37.83,4.1c2.26.14,4.53.37,6.78.67l52.95,7.1A1.36,1.36,0,0,0,311.67,252.06Z"/>
      </g>
    </g>
  </g>
</svg>
